<?xml version="1.0" standalone="no"?>
<!DOCTYPE svg PUBLIC "-//W3C//DTD SVG 20010904//EN"
 "http://www.w3.org/TR/2001/REC-SVG-20010904/DTD/svg10.dtd">
<svg version="1.0" xmlns="http://www.w3.org/2000/svg"
 width="512.000000pt" height="512.000000pt" viewBox="0 0 512.000000 512.000000"
 preserveAspectRatio="xMidYMid meet">

<g transform="translate(0.000000,512.000000) scale(0.100000,-0.100000)"
fill="#0072b1" fill-opacity="0.05" stroke="none">
<path fill="#0072b1" fill-opacity="0.05" d="M2455 4470 c-60 -12 -1165 -405 -1226 -436 -65 -33 -155 -122 -191
-190 -57 -106 -58 -117 -58 -740 0 -607 5 -709 46 -893 98 -438 337 -821 688
-1100 75 -60 571 -383 643 -420 136 -69 306 -66 438 8 91 51 529 342 610 406
105 83 276 259 354 365 176 238 295 514 353 815 20 103 21 151 25 743 3 447 1
648 -7 687 -27 130 -129 264 -246 322 -76 38 -1157 420 -1226 433 -59 12 -145
11 -203 0z m710 -510 c312 -110 578 -208 591 -217 14 -9 34 -34 45 -55 20 -39
20 -55 17 -651 -4 -589 -5 -616 -26 -720 -82 -393 -286 -726 -587 -962 -78
-60 -511 -347 -576 -381 -55 -28 -106 -15 -216 57 -347 223 -416 269 -487 323
-280 211 -487 527 -577 878 -44 173 -49 260 -49 858 l0 565 23 39 c12 21 38
47 57 57 74 40 1135 408 1177 409 31 0 203 -57 608 -200z"/>
<path fill="#0072b1" fill-opacity="0.05" d="M2445 3828 c-27 -5 -88 -27 -135 -50 -198 -95 -319 -294 -320 -524
l0 -71 -44 -17 c-64 -24 -130 -87 -163 -154 l-28 -57 0 -440 0 -440 28 -57
c32 -65 89 -121 156 -152 45 -21 55 -21 621 -21 566 0 576 0 621 21 67 31 124
87 156 152 l28 57 0 440 0 440 -28 57 c-33 67 -99 130 -163 154 l-44 17 0 67
c0 101 -17 177 -62 270 -111 231 -366 357 -623 308z m200 -325 c100 -34 165
-134 165 -255 l0 -58 -250 0 -250 0 0 58 c0 192 161 315 335 255z m405 -988
l0 -355 -490 0 -490 0 0 355 0 355 490 0 490 0 0 -355z"/>
</g>
</svg>
