<?xml version="1.0" standalone="no"?>
<!DOCTYPE svg PUBLIC "-//W3C//DTD SVG 20010904//EN"
 "http://www.w3.org/TR/2001/REC-SVG-20010904/DTD/svg10.dtd">
<svg version="1.0" xmlns="http://www.w3.org/2000/svg"
 width="64.000000pt" height="64.000000pt" viewBox="0 0 64.000000 64.000000"
 preserveAspectRatio="xMidYMid meet">

<g transform="translate(0.000000,64.000000) scale(0.100000,-0.100000)"
fill="#0072b1" fill-opacity="0.05" stroke="none">
<path fill="#0072b1" fill-opacity="0.05" d="M205 616 c-30 -17 -49 -40 -76 -92 -34 -63 -36 -71 -23 -91 8 -12 14
-33 14 -46 0 -13 11 -40 24 -60 25 -36 25 -36 4 -43 -42 -13 -107 -85 -128
-140 -35 -96 -24 -114 75 -114 77 0 70 24 -8 28 -53 3 -57 5 -57 28 0 50 76
164 109 164 3 0 14 -18 23 -40 20 -48 35 -50 73 -10 16 17 32 30 37 30 4 0 24
-14 44 -32 l36 -32 19 23 c11 13 19 32 19 42 0 24 22 24 44 0 16 -17 16 -19
-5 -24 -19 -5 -20 -10 -14 -49 4 -24 14 -55 21 -70 l14 -27 -102 -3 c-70 -2
-103 -7 -106 -15 -3 -10 24 -13 111 -13 90 0 122 -4 145 -17 28 -16 31 -16 55
0 34 22 74 92 83 144 6 41 6 41 -37 62 -24 11 -52 26 -61 33 -14 10 -21 9 -37
-6 -19 -17 -23 -18 -38 -4 -10 9 -33 23 -51 32 -32 17 -33 18 -18 41 22 33 58
146 51 159 -41 80 -66 115 -100 138 -48 33 -87 34 -140 4z m85 -33 c0 -21 3
-48 6 -60 5 -20 2 -23 -21 -23 -26 0 -27 2 -21 38 3 20 6 47 6 60 0 13 6 22
15 22 11 0 15 -11 15 -37z m-64 -59 c-5 -20 -13 -24 -41 -24 -47 0 -46 21 3
69 l37 36 3 -29 c2 -15 1 -39 -2 -52z m138 41 c13 -14 26 -35 29 -46 5 -18 1
-20 -31 -17 -36 3 -37 4 -40 46 -4 49 8 54 42 17z m56 -110 c0 -6 -58 -11
-150 -13 -130 -2 -150 0 -150 13 0 13 20 15 150 13 92 -2 150 -7 150 -13z
m-20 -60 c0 -50 -73 -125 -121 -125 -59 0 -119 50 -134 113 l-7 27 131 0 c112
0 131 -2 131 -15z m-182 -138 l23 -13 -25 -23 -25 -24 -11 27 c-16 44 -3 55
38 33z m152 -9 c0 -13 -5 -30 -10 -38 -7 -12 -13 -11 -35 10 l-26 24 23 13
c34 18 48 16 48 -9z m236 -101 c-4 -38 -46 -104 -72 -114 -19 -7 -51 23 -75
69 -30 58 -25 80 24 104 l42 20 43 -20 c41 -20 42 -23 38 -59z"/>
<path fill="#0072b1" fill-opacity="0.05" d="M536 141 c-10 -11 -24 -17 -32 -14 -19 7 -18 -11 1 -27 13 -11 20 -9
40 10 24 23 33 50 17 50 -5 0 -17 -9 -26 -19z"/>
<path fill="#0072b1" fill-opacity="0.05" d="M180 40 c0 -5 4 -10 9 -10 6 0 13 5 16 10 3 6 -1 10 -9 10 -9 0 -16
-4 -16 -10z"/>
</g>
</svg>
